# File exported by Houdini 20.0.688 (www.sidefx.com)
# 25 points
# 64 vertices
# 16 primitives
# Bounds: [-0.5, 0, -0.5] to [0.5, 0, 0.5]
g 
v -0.5 0 -0.5
v -0.25 0 -0.5
v 0 0 -0.5
v 0.25 0 -0.5
v 0.5 0 -0.5
v -0.5 0 -0.25
v -0.25 0 -0.25
v 0 0 -0.25
v 0.25 0 -0.25
v 0.5 0 -0.25
v -0.5 0 0
v -0.25 0 0
v 0 0 0
v 0.25 0 0
v 0.5 0 0
v -0.5 0 0.25
v -0.25 0 0.25
v 0 0 0.25
v 0.25 0 0.25
v 0.5 0 0.25
v -0.5 0 0.5
v -0.25 0 0.5
v 0 0 0.5
v 0.25 0 0.5
v 0.5 0 0.5
vt 0 0 0.5
vt 0 0.25 0.5
vt 0.25 0.25 0.5
vt 0.25 0 0.5
vt 0.5 0.25 0.5
vt 0.5 0 0.5
vt 0.75 0.25 0.5
vt 0.75 0 0.5
vt 1 0.25 0.5
vt 1 0 0.5
vt 0 0.5 0.5
vt 0.25 0.5 0.5
vt 0.5 0.5 0.5
vt 0.75 0.5 0.5
vt 1 0.5 0.5
vt 0 0.75 0.5
vt 0.25 0.75 0.5
vt 0.5 0.75 0.5
vt 0.75 0.75 0.5
vt 1 0.75 0.5
vt 0 1 0.5
vt 0.25 1 0.5
vt 0.5 1 0.5
vt 0.75 1 0.5
vt 1 1 0.5
vn -0 1 -0
vn 0 1 0
vn 0 1 0
vn -0 1 -0
vn -0 1 -0
vn 0 1 0
vn 0 1 0
vn -0 1 -0
vn -0 1 -0
vn 0 1 0
vn 0 1 0
vn -0 1 -0
vn -0 1 -0
vn 0 1 0
vn -0 1 -0
vn -0 1 -0
vn 0 1 0
vn 0 1 0
vn 0 1 0
vn 0 1 0
vn 0 1 0
vn 0 1 0
vn 0 1 0
vn 0 1 0
vn 0 1 0
vn 0 1 0
vn 0 1 0
vn 0 1 0
vn 0 1 0
vn 0 1 0
vn -0 1 -0
vn -0 1 -0
vn 0 1 0
vn 0 1 0
vn 0 1 0
vn 0 1 0
vn 0 1 0
vn 0 1 0
vn 0 1 0
vn 0 1 0
vn 0 1 0
vn 0 1 0
vn 0 1 0
vn 0 1 0
vn 0 1 0
vn 0 1 0
vn -0 1 -0
vn -0 1 -0
vn 0 1 0
vn 0 1 0
vn 0 1 0
vn 0 1 0
vn 0 1 0
vn 0 1 0
vn 0 1 0
vn 0 1 0
vn 0 1 0
vn 0 1 0
vn 0 1 0
vn 0 1 0
vn 0 1 0
vn 0 1 0
vn -0 1 -0
vn -0 1 -0
g 
f 1/1/1 6/2/2 7/3/3 2/4/4
f 2/4/5 7/3/6 8/5/7 3/6/8
f 3/6/9 8/5/10 9/7/11 4/8/12
f 4/8/13 9/7/14 10/9/15 5/10/16
f 6/2/17 11/11/18 12/12/19 7/3/20
f 7/3/21 12/12/22 13/13/23 8/5/24
f 8/5/25 13/13/26 14/14/27 9/7/28
f 9/7/29 14/14/30 15/15/31 10/9/32
f 11/11/33 16/16/34 17/17/35 12/12/36
f 12/12/37 17/17/38 18/18/39 13/13/40
f 13/13/41 18/18/42 19/19/43 14/14/44
f 14/14/45 19/19/46 20/20/47 15/15/48
f 16/16/49 21/21/50 22/22/51 17/17/52
f 17/17/53 22/22/54 23/23/55 18/18/56
f 18/18/57 23/23/58 24/24/59 19/19/60
f 19/19/61 24/24/62 25/25/63 20/20/64
