# File exported by Houdini 20.0.653 (www.sidefx.com)
# 20 points
# 60 vertices
# 12 primitives
# Bounds: [-0.927930415, -0.975683928, -0.78934443] to [0.927930415, 0.975683868, 0.78934443]
g 
v 0.354437858 0.487842113 -0.789344311
v 0.573492587 -0.186338872 -0.78934437
v 0 -0.603005826 -0.78934443
v -0.573492587 -0.186338872 -0.78934437
v -0.354437858 0.487842113 -0.789344311
v -0.573492587 0.789345026 -0.186338797
v -0.927930415 -0.301502913 -0.186338872
v 0 -0.975683928 -0.186338902
v 0.927930415 -0.301502913 -0.186338872
v 0.573492587 0.789345026 -0.186338797
v 0 0.975683868 0.186338902
v -0.927930415 0.301502913 0.186338872
v -0.573492587 -0.789345026 0.186338797
v 0.573492587 -0.789345026 0.186338797
v 0.927930415 0.301502913 0.186338872
v 0 0.603005826 0.78934443
v 0.573492587 0.186338872 0.78934437
v 0.354437858 -0.487842113 0.789344311
v -0.354437858 -0.487842113 0.789344311
v -0.573492587 0.186338872 0.78934437
vn -0 8.84104523e-08 -1
vn 3.21169509e-08 9.88458879e-08 -1
vn -0 1.43051054e-07 -1
vn -3.21169509e-08 9.88458879e-08 -1
vn -0 8.84104523e-08 -1
vn -0 0.894427121 -0.447213829
vn -0 0.894427121 -0.447213829
vn 1.09129381e-07 0.89442718 -0.447213769
vn -0 0.89442718 -0.44721359
vn -1.09129381e-07 0.89442718 -0.447213769
vn 0.850650609 0.276393265 -0.447213858
vn 0.850650728 0.276393145 -0.447213769
vn 0.850650728 0.276393116 -0.447213829
vn 0.850650787 0.276392937 -0.44721365
vn 0.850650787 0.276393294 -0.44721359
vn 0.525731206 -0.723606467 -0.447213948
vn 0.525731206 -0.723606467 -0.447213978
vn 0.525731027 -0.723606586 -0.447214305
vn 0.525730789 -0.723606884 -0.447213829
vn 0.525731266 -0.723606646 -0.447213709
vn -0.525731266 -0.723606646 -0.447213709
vn -0.525730789 -0.723606884 -0.447213829
vn -0.525731027 -0.723606586 -0.447214305
vn -0.525731206 -0.723606467 -0.447213978
vn -0.525731206 -0.723606467 -0.447213948
vn -0.850650787 0.276393294 -0.44721359
vn -0.850650787 0.276392937 -0.44721365
vn -0.850650728 0.276393116 -0.447213829
vn -0.850650728 0.276393145 -0.447213769
vn -0.850650609 0.276393265 -0.447213858
vn -0.525730968 0.723606586 0.447214335
vn -0.525731206 0.723606467 0.447213978
vn -0.525731206 0.723606467 0.447213948
vn -0.525731266 0.723606646 0.44721365
vn -0.525730789 0.723606944 0.447213829
vn -0.850650728 -0.276393116 0.447213829
vn -0.850650728 -0.276393145 0.447213769
vn -0.850650609 -0.276393265 0.447213858
vn -0.850650787 -0.276393294 0.44721359
vn -0.850650787 -0.276392937 0.44721365
vn -0 -0.89442718 0.44721368
vn -3.11798196e-08 -0.894427121 0.447213769
vn -0 -0.894427121 0.447213829
vn -0 -0.894427121 0.447213829
vn 3.11798196e-08 -0.894427121 0.447213769
vn 0.850650728 -0.276393116 0.447213829
vn 0.850650787 -0.276392937 0.44721365
vn 0.850650787 -0.276393294 0.44721359
vn 0.850650609 -0.276393265 0.447213858
vn 0.850650728 -0.276393145 0.447213769
vn 0.525730968 0.723606586 0.447214335
vn 0.525730789 0.723606944 0.447213829
vn 0.525731266 0.723606646 0.44721365
vn 0.525731206 0.723606467 0.447213948
vn 0.525731206 0.723606467 0.447213978
vn -0 -1.43051054e-07 1
vn -3.21169509e-08 -9.88458879e-08 1
vn -0 -8.84104523e-08 1
vn -0 -8.84104523e-08 1
vn 3.21169509e-08 -9.88458879e-08 1
g 
f 1//1 2//2 3//3 4//4 5//5
f 1//6 5//7 6//8 11//9 10//10
f 1//11 10//12 15//13 9//14 2//15
f 2//16 9//17 14//18 8//19 3//20
f 3//21 8//22 13//23 7//24 4//25
f 4//26 7//27 12//28 6//29 5//30
f 6//31 12//32 20//33 16//34 11//35
f 7//36 13//37 19//38 20//39 12//40
f 8//41 14//42 18//43 19//44 13//45
f 9//46 15//47 17//48 18//49 14//50
f 10//51 11//52 16//53 17//54 15//55
f 16//56 20//57 19//58 18//59 17//60
